<?xml version="1.0" standalone="no"?>
<!DOCTYPE svg PUBLIC "-//W3C//DTD SVG 20010904//EN"
 "http://www.w3.org/TR/2001/REC-SVG-20010904/DTD/svg10.dtd">
<svg version="1.0" xmlns="http://www.w3.org/2000/svg"
 width="20" height="20" viewBox="0 0 512.000000 512.000000"
 preserveAspectRatio="xMidYMid meet">

<g transform="translate(0.000000,512.000000) scale(0.100000,-0.100000)"
fill="#9ca8e5" stroke="none">
<path d="M4874 5041 c-534 -299 -1106 -710 -1554 -1117 -846 -768 -1280 -1533
-1281 -2259 0 -246 56 -419 180 -548 95 -100 202 -147 335 -147 212 0 375 115
465 329 50 119 53 152 61 721 8 562 11 594 61 780 76 287 252 621 474 905 330
422 821 853 1348 1184 125 78 157 109 157 148 0 31 -51 83 -82 83 -13 0 -87
-35 -164 -79z m-1374 -1195 c0 -2 -24 -35 -54 -74 -257 -333 -437 -720 -508
-1091 -18 -94 -21 -167 -28 -641 -4 -294 -11 -548 -15 -565 -28 -122 -68 -198
-135 -258 -124 -111 -317 -99 -427 28 -83 95 -123 230 -123 422 -1 492 224
1009 678 1562 57 69 216 237 353 374 229 227 259 255 259 243z"/>
<path d="M1832 2884 c-50 -8 -145 -30 -210 -49 -284 -85 -453 -111 -642 -102
-139 7 -236 26 -397 78 -127 41 -280 78 -324 79 -60 0 -131 -31 -179 -80 -85
-85 -80 10 -80 -1371 0 -1202 0 -1219 20 -1273 23 -60 77 -117 139 -144 33
-16 225 -17 2381 -20 2608 -3 2411 -8 2491 65 22 20 50 55 62 77 l22 41 0
1255 c0 1204 -1 1257 -19 1292 -10 21 -34 54 -54 73 -57 55 -97 70 -182 70
-77 0 -102 -8 -320 -100 -152 -65 -275 -55 -486 40 -68 31 -157 63 -197 72
-122 26 -267 4 -394 -60 -121 -60 -172 -122 -194 -239 -6 -29 -14 -296 -19
-593 -9 -587 -9 -597 -70 -752 -76 -198 -219 -340 -412 -410 -65 -24 -87 -27
-208 -27 -115 -1 -144 3 -197 22 -201 72 -359 236 -437 452 -100 278 -65 774
78 1106 18 44 57 132 85 197 61 141 74 191 61 239 -17 60 -40 73 -139 75 -47
1 -128 -5 -179 -13z m128 -163 c0 -5 -30 -76 -66 -158 -36 -81 -79 -186 -94
-233 -100 -307 -132 -726 -74 -978 85 -366 324 -625 651 -703 113 -27 298 -22
411 10 192 56 356 178 467 349 53 83 78 139 111 245 47 156 54 251 54 718 0
423 9 586 33 639 17 36 138 95 226 111 96 17 161 3 306 -63 154 -70 236 -90
370 -91 119 -1 156 9 369 98 126 53 157 55 196 17 l30 -31 -2 -1215 -3 -1215
-23 -23 -23 -23 -2319 -3 c-2531 -2 -2378 -6 -2400 53 -13 35 -14 2404 0 2439
5 14 23 32 40 41 29 15 38 15 111 0 44 -9 119 -30 167 -46 264 -90 485 -117
727 -88 126 14 217 34 390 85 121 36 227 59 338 73 4 1 7 -3 7 -8z"/>
<path d="M378 2456 c-49 -37 -37 -128 19 -143 39 -10 64 -5 91 20 30 28 30 86
-1 115 -26 25 -82 29 -109 8z"/>
<path d="M882 2447 c-50 -53 -13 -137 59 -137 47 0 79 34 79 81 0 71 -90 107
-138 56z"/>
<path d="M1391 2444 c-28 -36 -27 -85 2 -111 44 -42 111 -31 133 22 25 61 -10
114 -78 115 -28 0 -41 -6 -57 -26z"/>
<path d="M3612 2447 c-49 -52 -11 -141 59 -139 71 2 107 92 56 140 -32 30 -87
29 -115 -1z"/>
<path d="M4122 2447 c-30 -32 -29 -87 1 -114 26 -25 51 -30 90 -20 56 15 68
106 19 143 -28 22 -86 17 -110 -9z"/>
<path d="M4635 2445 c-30 -30 -32 -73 -5 -107 57 -74 175 -4 140 82 -23 56
-92 69 -135 25z"/>
<path d="M654 2210 c-56 -23 -70 -92 -28 -134 75 -74 192 29 122 108 -26 29
-63 39 -94 26z"/>
<path d="M1160 2207 c-53 -27 -62 -96 -18 -137 48 -44 138 -5 138 61 0 58 -70
102 -120 76z"/>
<path d="M3890 2207 c-55 -28 -64 -94 -18 -137 48 -44 138 -5 138 61 0 58 -70
102 -120 76z"/>
<path d="M4400 2207 c-14 -7 -31 -25 -38 -39 -38 -81 70 -157 133 -93 42 41
31 105 -22 133 -27 15 -42 15 -73 -1z"/>
</g>
</svg>
