<svg aria-hidden="true" style="position: absolute; width: 0; height: 0; overflow: hidden;" version="1.1" xmlns="http://www.w3.org/2000/svg" xmlns:xlink="http://www.w3.org/1999/xlink">
<defs>
<symbol id="dermis" viewBox="0 0 32 32">
<path d="M30.462 0.494c-3.337 1.869-6.913 4.438-9.712 6.981-5.287 4.8-8 9.581-8.006 14.119 0 1.538 0.35 2.619 1.125 3.425 0.594 0.625 1.262 0.919 2.094 0.919 1.325 0 2.344-0.719 2.906-2.056 0.313-0.744 0.331-0.95 0.381-4.506 0.050-3.512 0.069-3.713 0.381-4.875 0.475-1.794 1.575-3.881 2.962-5.656 2.063-2.638 5.131-5.331 8.425-7.4 0.781-0.488 0.981-0.681 0.981-0.925 0-0.194-0.319-0.519-0.512-0.519-0.081 0-0.544 0.219-1.025 0.494zM21.875 7.963c0 0.013-0.15 0.219-0.337 0.463-1.606 2.081-2.731 4.5-3.175 6.819-0.113 0.588-0.131 1.044-0.175 4.006-0.025 1.837-0.069 3.425-0.094 3.531-0.175 0.762-0.425 1.238-0.844 1.613-0.775 0.694-1.981 0.619-2.669-0.175-0.519-0.594-0.769-1.438-0.769-2.637-0.006-3.075 1.4-6.306 4.238-9.762 0.356-0.431 1.35-1.481 2.206-2.338 1.431-1.419 1.619-1.594 1.619-1.519z"></path>
<path d="M11.45 13.975c-0.313 0.050-0.906 0.188-1.313 0.306-1.775 0.531-2.831 0.694-4.013 0.637-0.869-0.044-1.475-0.162-2.481-0.488-0.794-0.256-1.75-0.488-2.025-0.494-0.375 0-0.819 0.194-1.119 0.5-0.531 0.531-0.5-0.063-0.5 8.569 0 7.512 0 7.619 0.125 7.956 0.144 0.375 0.481 0.731 0.869 0.9 0.206 0.1 1.406 0.106 14.881 0.125 16.3 0.019 15.069 0.050 15.569-0.406 0.137-0.125 0.313-0.344 0.387-0.481l0.137-0.256v-7.844c0-7.525-0.006-7.856-0.119-8.075-0.063-0.131-0.212-0.338-0.337-0.456-0.356-0.344-0.606-0.438-1.137-0.438-0.481 0-0.637 0.050-2 0.625-0.95 0.406-1.719 0.344-3.038-0.25-0.425-0.194-0.981-0.394-1.231-0.45-0.762-0.162-1.669-0.025-2.462 0.375-0.756 0.375-1.075 0.762-1.212 1.494-0.038 0.181-0.087 1.85-0.119 3.706-0.056 3.669-0.056 3.731-0.438 4.7-0.475 1.238-1.369 2.125-2.575 2.563-0.406 0.15-0.544 0.169-1.3 0.169-0.719 0.006-0.9-0.019-1.231-0.137-1.256-0.45-2.244-1.475-2.731-2.825-0.625-1.738-0.406-4.838 0.488-6.912 0.113-0.275 0.356-0.825 0.531-1.231 0.381-0.881 0.463-1.194 0.381-1.494-0.106-0.375-0.25-0.456-0.869-0.469-0.294-0.006-0.8 0.031-1.119 0.081zM12.25 14.994c0 0.031-0.188 0.475-0.412 0.988-0.225 0.506-0.494 1.162-0.588 1.456-0.625 1.919-0.825 4.538-0.463 6.113 0.531 2.288 2.025 3.906 4.069 4.394 0.706 0.169 1.863 0.137 2.569-0.063 1.2-0.35 2.225-1.113 2.919-2.181 0.331-0.519 0.488-0.869 0.694-1.531 0.294-0.975 0.337-1.569 0.337-4.488 0-2.644 0.056-3.663 0.206-3.994 0.106-0.225 0.863-0.594 1.413-0.694 0.6-0.106 1.006-0.019 1.913 0.394 0.962 0.438 1.475 0.563 2.313 0.569 0.744 0.006 0.975-0.056 2.306-0.613 0.788-0.331 0.981-0.344 1.225-0.106l0.188 0.194-0.012 7.594-0.019 7.594-0.288 0.288-14.494 0.019c-15.819 0.012-14.863 0.038-15-0.331-0.081-0.219-0.087-15.025 0-15.244 0.031-0.088 0.144-0.2 0.25-0.256 0.181-0.094 0.238-0.094 0.694 0 0.275 0.056 0.744 0.188 1.044 0.287 1.65 0.563 3.031 0.731 4.544 0.55 0.787-0.088 1.356-0.213 2.438-0.531 0.756-0.225 1.419-0.369 2.113-0.456 0.025-0.006 0.044 0.019 0.044 0.050z"></path>
<path d="M2.362 16.65c-0.306 0.231-0.231 0.8 0.119 0.894 0.244 0.063 0.4 0.031 0.569-0.125 0.188-0.175 0.188-0.538-0.006-0.719-0.163-0.156-0.512-0.181-0.681-0.050z"></path>
<path d="M5.513 16.706c-0.313 0.331-0.081 0.856 0.369 0.856 0.294 0 0.494-0.212 0.494-0.506 0-0.444-0.563-0.669-0.862-0.35z"></path>
<path d="M8.694 16.725c-0.175 0.225-0.169 0.531 0.012 0.694 0.275 0.262 0.694 0.194 0.831-0.137 0.156-0.381-0.063-0.712-0.488-0.719-0.175 0-0.256 0.038-0.356 0.163z"></path>
<path d="M22.575 16.706c-0.306 0.325-0.069 0.881 0.369 0.869 0.444-0.012 0.669-0.575 0.35-0.875-0.2-0.188-0.544-0.181-0.719 0.006z"></path>
<path d="M25.762 16.706c-0.188 0.2-0.181 0.544 0.006 0.712 0.163 0.156 0.319 0.188 0.563 0.125 0.35-0.094 0.425-0.663 0.119-0.894-0.175-0.137-0.538-0.106-0.688 0.056z"></path>
<path d="M28.969 16.719c-0.188 0.188-0.2 0.456-0.031 0.669 0.356 0.462 1.094 0.025 0.875-0.512-0.144-0.35-0.575-0.431-0.844-0.156z"></path>
<path d="M4.088 18.188c-0.35 0.144-0.438 0.575-0.175 0.837 0.469 0.462 1.2-0.181 0.763-0.675-0.162-0.181-0.394-0.244-0.588-0.163z"></path>
<path d="M7.25 18.206c-0.331 0.169-0.388 0.6-0.112 0.856 0.3 0.275 0.862 0.031 0.862-0.381 0-0.363-0.438-0.637-0.75-0.475z"></path>
<path d="M24.313 18.206c-0.344 0.175-0.4 0.587-0.113 0.856 0.3 0.275 0.863 0.031 0.863-0.381 0-0.363-0.438-0.637-0.75-0.475z"></path>
<path d="M27.5 18.206c-0.087 0.044-0.194 0.156-0.238 0.244-0.238 0.506 0.438 0.981 0.831 0.581 0.262-0.256 0.194-0.656-0.137-0.831-0.169-0.094-0.262-0.094-0.456 0.006z"></path>
</symbol>
<symbol id="call" viewBox="0 0 32 32">
<path d="M16.781 0.094c-0.819 0.287-1.113 1.519-0.5 2.069 0.244 0.219 0.512 0.313 1.063 0.369 1.025 0.112 2.512 0.431 3.625 0.775 3.181 1 5.369 2.837 6.637 5.569 0.712 1.537 1.3 3.919 1.419 5.725 0.075 1.162 0.425 1.6 1.288 1.6 0.419 0 0.712-0.113 0.931-0.356 0.262-0.306 0.319-0.569 0.319-1.569 0-2.669-0.619-4.963-1.931-7.144-2.206-3.656-5.719-6.175-9.656-6.906-1.15-0.219-2.762-0.281-3.194-0.131z"></path>
<path d="M5.525 1.637c-1.044 0.119-2.519 0.863-3.425 1.731-0.556 0.538-0.875 0.969-1.163 1.594-0.4 0.844-0.469 1.188-0.463 2.287 0 0.844 0.025 1.050 0.169 1.581 0.4 1.494 2.031 4.863 3.494 7.225 4.044 6.525 10.012 11.669 17.425 15.025 1.581 0.712 2.406 0.956 3.094 0.894 2.113-0.175 4.506-1.962 5.531-4.119 0.762-1.594 0.531-2.844-0.731-3.975-0.869-0.769-3.669-2.831-4.662-3.431-0.988-0.587-2.087-0.825-2.9-0.613-0.85 0.212-1.45 0.656-2.163 1.587-0.644 0.844-0.913 1.012-1.581 1.012-0.444 0-0.869-0.137-1.681-0.55-2.688-1.35-4.912-3.556-6.106-6.050-0.544-1.137-0.656-1.906-0.375-2.537 0.175-0.394 0.4-0.631 1.075-1.144 0.919-0.694 1.287-1.162 1.475-1.875 0.231-0.856-0.012-1.675-0.981-3.325-1.006-1.706-2.838-3.944-3.881-4.75-0.619-0.475-1.331-0.663-2.15-0.569z"></path>
<path d="M17.656 4.094c-0.031 0.013-0.169 0.037-0.3 0.063-0.663 0.112-1.113 1.075-0.825 1.763 0.206 0.487 0.481 0.644 1.444 0.825 3.425 0.65 5.181 1.806 6.087 4.006 0.35 0.844 0.681 2.231 0.781 3.25 0.056 0.581 0.156 0.863 0.375 1.094 0.462 0.494 1.519 0.425 1.894-0.119 0.212-0.313 0.262-0.563 0.262-1.35-0.006-1.956-0.544-3.65-1.675-5.281-0.45-0.644-1.712-1.906-2.356-2.356-0.988-0.694-2.231-1.269-3.331-1.544-0.394-0.1-2.15-0.394-2.262-0.375-0.019 0-0.056 0.013-0.094 0.025z"></path>
<path d="M17.813 8.412c-0.55 0.194-0.869 0.662-0.875 1.262 0 0.394 0.113 0.637 0.387 0.844 0.238 0.175 0.425 0.244 1.175 0.419 0.975 0.231 1.581 0.669 1.938 1.4 0.181 0.381 0.225 0.531 0.406 1.419 0.113 0.537 0.356 0.9 0.744 1.081 0.619 0.294 1.387-0.037 1.644-0.706 0.15-0.387 0.15-1.394-0.006-1.912-0.488-1.656-1.906-3.156-3.519-3.725-0.5-0.175-1.512-0.219-1.894-0.081z"></path>
</symbol>
<symbol id="spa" viewBox="0 0 32 32">
<path d="M17.35 1.45c-1.5 1.8-2.1 4.8-1.4 6.75 0.75 1.85 1.65 1.15 1.25-0.9-0.15-1.050 0.050-2.35 0.55-3.6l0.8-1.95 0.7 1.25c0.85 1.55 0.95 4.5 0.15 6.25-0.85 1.85-2.95 1.7-5.1-0.4-0.95-0.85-1.85-2.1-2.050-2.75-0.25-0.95-0.15-1.1 1-1.1 2.050 0 1.25-1.2-0.9-1.4-1.75-0.15-1.85-0.050-1.85 1.25 0 0.75 0.5 2.3 1.15 3.35 3.65 6.35 13.85 4.45 15.15-2.85l0.3-1.85h-1.85c-1 0-2.25 0.2-2.75 0.5-0.75 0.4-1 0.2-1.5-1-0.3-0.75-1-1.8-1.5-2.25-0.8-0.75-0.95-0.7-2.15 0.7z"></path>
<path d="M4.65 18.8l-2.15 1.25v4.25c0 3.85-0.1 4.2-1 4.2-0.55 0-1 0.35-1 0.75 0 0.5 0.55 0.75 1.75 0.75h1.75v-4.65c0-4.6 0-4.65 1.45-5.5 2.35-1.35 5.3-1.050 9.55 1.050 2.050 1 3.8 2.15 3.9 2.45 0.35 1.2-1.4 1.25-4.15 0.1-1.95-0.8-2.9-1-3.3-0.6s0.3 0.9 2.3 1.85c1.6 0.7 3.35 1.3 3.95 1.3s3.4-1 6.3-2.25c4.45-1.85 5.35-2.1 5.95-1.55 0.35 0.4 0.55 0.95 0.35 1.2-0.35 0.55-15.5 7.1-16.45 7.1-0.35 0-2.25-0.8-4.3-1.75-4-1.95-4.55-2.050-4.55-1.1 0 1.15 7.8 4.5 9.5 4.15 0.8-0.15 4.75-1.65 8.8-3.4 7.55-3.2 9.1-4.35 8.45-6.4-0.35-1.1-2.5-2.2-3.3-1.75-0.2 0.15-1-0.050-1.65-0.5-1.15-0.75-1.4-0.75-3.5 0.2-1.25 0.55-2.3 1.25-2.3 1.5 0 0.75 0.7 0.7 2.75-0.15 0.95-0.4 1.85-0.55 2-0.3 0.2 0.35-0.6 0.75-4.55 2.3-0.3 0.15-0.75-0.3-1.050-0.9-0.35-0.8-1.9-1.8-4.8-3.050-5.2-2.25-7.7-2.4-10.7-0.55z"></path>
</symbol>
<symbol id="no" viewBox="0 0 32 32">
<path d="M0.5 1.1c0 0.35 0.95 1.6 2.1 2.75l2.1 2.15-2.1 2.15c-3.55 3.65-2.4 4.8 1.25 1.25l2.15-2.1 2.15 2.1c3.65 3.55 4.8 2.4 1.25-1.25l-2.1-2.15 2.1-2.15c3.55-3.65 2.4-4.8-1.25-1.25l-2.15 2.1-2.15-2.1c-2.15-2.1-3.35-2.65-3.35-1.5z"></path>
<path d="M19.1 1.1c-0.3 0.3-0.6 0.9-0.6 1.25s-0.5 0.65-1.15 0.65c-0.65 0-1.6 0.3-2.15 0.7-0.85 0.65-0.95 1.5-1.1 7.5-0.1 3.75-0.35 6.8-0.55 6.8-0.25 0-0.8-0.45-1.35-1.050-0.5-0.6-1.6-1.4-2.35-1.8-1.25-0.65-1.55-0.65-2.65 0.1-0.7 0.45-1.2 1.25-1.15 1.9 0 1.2 8.8 13.9 9.85 14.25 1.3 0.4 0.45-1.2-3.95-7.45-4.1-5.85-5.050-7.95-3.55-7.95 0.25 0 2.3 1.55 4.55 3.5 2.3 1.9 4.35 3.5 4.6 3.5 0.85 0 0.45-1.45-0.55-2.15-0.95-0.65-1-1.15-0.9-8.4 0.15-6.45 0.25-7.7 0.9-7.7 0.6 0 0.8 1.1 1 6.1 0.15 3.35 0.45 6.25 0.65 6.45 0.95 0.95 1.35-1.5 1.35-8.2 0-6.75 0.050-7.1 1-7.1 0.9 0 1 0.4 1.1 7.35 0.15 6.2 0.25 7.4 0.9 7.4 0.6 0 0.8-1.1 1-6s0.4-6 1-6c0.6 0 0.8 1.2 1 6.75s0.4 6.75 1 6.75c0.6 0 0.8-0.9 0.9-4.4 0.15-3.95 0.25-4.35 1.1-4.35 0.95 0 1 0.4 1 7.45 0 6.1-0.2 8.050-1.050 10.8-1.050 3.45-0.9 4.75 0.35 3 1.45-2 2.25-6.050 2.5-13 0.3-7.85-0.1-9.4-2.4-9.65-1.1-0.15-1.4-0.45-1.65-2.15-0.35-2-1.35-2.95-3.1-2.95-0.5 0-1.15-0.5-1.4-1.15-0.55-1.25-3.15-1.75-4.15-0.75z"></path>
</symbol>
<symbol id="yes" viewBox="0 0 32 32">
<path d="M15.65 0.55c-0.6 0.2-1.2 0.85-1.4 1.4-0.2 0.65-0.75 1.050-1.45 1.050-1.55 0-2.8 1.5-2.8 3.4 0 1.45-0.15 1.6-1.5 1.6-1.8 0-2.5 1.15-2.5 4.2 0 1.65 0.2 2.3 0.7 2.3 0.55 0 0.8-0.7 0.9-2.4 0.15-1.95 0.3-2.35 1.15-2.35s1 0.4 1.15 2.6c0.1 1.9 0.35 2.65 0.85 2.65 0.55 0 0.75-1.1 0.85-5.15 0.15-4.7 0.2-5.1 1.15-5.1s1 0.4 1.15 6.1c0.1 4.95 0.25 6.15 0.85 6.15s0.75-1.35 0.85-7.4c0.15-6.95 0.2-7.35 1.15-7.35s1 0.4 1.15 6.85c0.1 5.6 0.25 6.9 0.85 6.9 0.55 0 0.75-1.15 0.85-5.65 0.15-5.2 0.2-5.6 1.15-5.6s1 0.4 1.15 7.55c0.1 7.45 0.1 7.5-1.15 8.7-0.7 0.65-1.25 1.35-1.25 1.6 0 1 1.4 0.15 5.3-3.15 3.95-3.3 5.2-3.85 5.2-2.2 0 0.4-1.95 3.45-4.3 6.8-4.8 6.85-5.25 7.65-4.050 7.4 0.45-0.1 2.85-3.1 5.35-6.65 4.7-6.8 5.45-8.75 3.55-9.8-1.45-0.75-1.75-0.65-4.5 1.5l-2.55 2v-6.9c0-6.1-0.1-7.050-0.9-7.75-0.5-0.5-1.4-0.85-1.95-0.85s-1.2-0.5-1.55-1.2c-0.6-1.35-1.9-1.8-3.45-1.25z"></path>
<path d="M3.8 17.95c-2.25 1.5-3.3 3.5-3.3 6.3 0 4.4 2.85 7.25 7.25 7.25s7.25-2.85 7.25-7.25c0-4.4-2.85-7.25-7.25-7.25-1.6 0-3 0.35-3.95 0.95zM11.8 20.2c1.45 1.45 1.7 2.050 1.7 4.050 0 3.4-2.35 5.75-5.75 5.75-2 0-2.6-0.25-4.050-1.7s-1.7-2.050-1.7-4.050c0-2 0.25-2.6 1.7-4.050s2.050-1.7 4.050-1.7c2 0 2.6 0.25 4.050 1.7z"></path>
<path d="M8.85 23.35c-1.050 1.050-1.45 1.25-1.95 0.75-0.8-0.8-1.9-0.75-1.9 0.050 0 0.9 1.6 2.35 2.55 2.35 0.9 0 3.95-3.050 3.95-3.9 0-1-1.2-0.65-2.65 0.75z"></path>
</symbol>
<symbol id="location" fill="red" viewBox="0 0 32 32">
<path d="M16 0c-5.523 0-10 4.477-10 10 0 10 10 22 10 22s10-12 10-22c0-5.523-4.477-10-10-10zM16 16c-3.314 0-6-2.686-6-6s2.686-6 6-6 6 2.686 6 6-2.686 6-6 6z"></path>
</symbol>
<symbol id="rocket" viewBox="0 0 32 32">
<path d="M22 2l-10 10h-6l-6 8c0 0 6.357-1.77 10.065-0.94l-10.065 12.94 13.184-10.255c1.839 4.208-1.184 10.255-1.184 10.255l8-6v-6l10-10 2-10-10 2z"></path>
</symbol>
<symbol id="fire" viewBox="0 0 32 32">
<path d="M10.031 32c-2.133-4.438-0.997-6.981 0.642-9.376 1.795-2.624 2.258-5.221 2.258-5.221s1.411 1.834 0.847 4.703c2.493-2.775 2.963-7.196 2.587-8.889 5.635 3.938 8.043 12.464 4.798 18.783 17.262-9.767 4.294-24.38 2.036-26.027 0.753 1.646 0.895 4.433-0.625 5.785-2.573-9.759-8.937-11.759-8.937-11.759 0.753 5.033-2.728 10.536-6.084 14.648-0.118-2.007-0.243-3.392-1.298-5.312-0.237 3.646-3.023 6.617-3.777 10.27-1.022 4.946 0.765 8.568 7.555 12.394z"></path>
</symbol>
<symbol id="notification" viewBox="0 0 32 32">
<path d="M16 3c-3.472 0-6.737 1.352-9.192 3.808s-3.808 5.72-3.808 9.192c0 3.472 1.352 6.737 3.808 9.192s5.72 3.808 9.192 3.808c3.472 0 6.737-1.352 9.192-3.808s3.808-5.72 3.808-9.192c0-3.472-1.352-6.737-3.808-9.192s-5.72-3.808-9.192-3.808zM16 0v0c8.837 0 16 7.163 16 16s-7.163 16-16 16c-8.837 0-16-7.163-16-16s7.163-16 16-16zM14 22h4v4h-4zM14 6h4v12h-4z"></path>
</symbol>
<symbol id="cancel" viewBox="0 0 32 32">
<path d="M16 0c-8.837 0-16 7.163-16 16s7.163 16 16 16 16-7.163 16-16-7.163-16-16-16zM16 29c-7.18 0-13-5.82-13-13s5.82-13 13-13 13 5.82 13 13-5.82 13-13 13z"></path>
<path d="M21 8l-5 5-5-5-3 3 5 5-5 5 3 3 5-5 5 5 3-3-5-5 5-5z"></path>
</symbol>
<symbol id="check" viewBox="0 0 32 32">
<path d="M12.42 28.678l-12.433-12.238 6.168-6.071 6.265 6.167 13.426-13.214 6.168 6.071-19.594 19.285zM3.372 16.441l9.048 8.905 16.208-15.953-2.782-2.739-13.426 13.214-6.265-6.167-2.782 2.739z"></path>
</symbol>
<symbol id="up" viewBox="0 0 32 32">
<path d="M27.414 12.586l-10-10c-0.781-0.781-2.047-0.781-2.828 0l-10 10c-0.781 0.781-0.781 2.047 0 2.828s2.047 0.781 2.828 0l6.586-6.586v19.172c0 1.105 0.895 2 2 2s2-0.895 2-2v-19.172l6.586 6.586c0.39 0.39 0.902 0.586 1.414 0.586s1.024-0.195 1.414-0.586c0.781-0.781 0.781-2.047 0-2.828z"></path>
</symbol>
<symbol id="lotos" viewBox="0 -0.5 25 25">
<path d="M12.1 13.377a.75.75 0 1 0-.157-1.492l.157 1.492ZM3.453 4.844l.75.022v-.017l-.75-.005Zm.749-.744v.75h.008l-.008-.75Zm4.34 2.019a.75.75 0 0 0 .822-1.254L8.541 6.12ZM4.201 3.35c-.396 0-.776.157-1.057.436L4.202 4.85v-1.5Zm-1.057.436c-.28.278-.44.657-.442 1.053l1.5.01-1.058-1.063Zm-.442 1.036C2.55 10 7.125 13.903 12.1 13.377l-.157-1.492c-4.129.437-7.864-2.806-7.74-7.02l-1.5-.043Zm6.662.043A9.234 9.234 0 0 0 4.192 3.35l.017 1.5A7.734 7.734 0 0 1 8.54 6.119l.823-1.254Z"/><path d="M14.52 4.96a.75.75 0 1 0 .844 1.241l-.844-1.24Zm5.282-.86-.004.75h.003l.001-.75Zm.747.744-.75.004v.017l.75-.021Zm-2.164 5.663.51.55a.768.768 0 0 0 .034-.034l-.544-.516Zm-2.952 1.75-.237-.711.237.711Zm-3.22-.364a.75.75 0 1 0-.135 1.494l.135-1.494Zm3.15-5.692a7.805 7.805 0 0 1 4.435-1.351l.008-1.5a9.305 9.305 0 0 0-5.286 1.61l.844 1.241Zm4.438-1.351H19.8l1.058-1.063c-.28-.28-.66-.436-1.055-.437l-.002 1.5Zm-.001 0-.001-.002 1.5-.008a1.498 1.498 0 0 0-.44-1.053l-1.06 1.062Zm0 .015a7.156 7.156 0 0 1-.47 2.758l1.402.536c.407-1.064.6-2.198.567-3.336l-1.5.042Zm-.47 2.758a7.155 7.155 0 0 1-1.49 2.368l1.09 1.032a8.656 8.656 0 0 0 1.802-2.864l-1.401-.536Zm-1.455 2.335a7.35 7.35 0 0 1-2.68 1.588l.475 1.423a8.85 8.85 0 0 0 3.225-1.912l-1.02-1.1Zm-2.68 1.588c-.96.32-1.975.438-2.982.347l-.135 1.494a8.85 8.85 0 0 0 3.592-.418l-.474-1.423ZM20.251 14.669a.75.75 0 1 0-1.5-.025l1.5.025Zm-15-.025a.75.75 0 0 0-1.499.024l1.5-.024Zm13.5 0c-.01.597-.524 1.338-1.8 1.971-1.232.611-2.98 1.01-4.95 1.01v1.5c2.152 0 4.137-.432 5.617-1.166 1.434-.712 2.61-1.831 2.633-3.29l-1.5-.025Zm-6.75 2.981c-1.97 0-3.717-.398-4.949-1.009-1.276-.632-1.79-1.373-1.8-1.972l-1.5.024c.024 1.462 1.199 2.58 2.634 3.292 1.48.734 3.465 1.165 5.616 1.165v-1.5Z"/><path d="M23.25 14.622H24v-.007l-.75.007Zm-22.5.003L0 14.618v.007h.75Zm1.557-2.58a.75.75 0 0 0-1.242-.84l1.242.84Zm20.643-.818a.75.75 0 0 0-1.245.836l1.245-.836Zm-.45 3.395c0 1.742-1.06 3.411-2.961 4.68-1.897 1.264-4.56 2.07-7.539 2.07v1.5c3.234 0 6.196-.873 8.37-2.323 2.17-1.446 3.63-3.527 3.63-5.927h-1.5ZM12 21.372c-2.98 0-5.642-.806-7.539-2.07C2.559 18.036 1.5 16.368 1.5 14.626H0c0 2.4 1.46 4.48 3.63 5.926C5.803 22 8.765 22.872 12 22.872v-1.5Zm-10.5-6.74c.009-.923.29-1.822.807-2.586l-1.242-.842A6.19 6.19 0 0 0 0 14.618l1.5.014Zm20.205-2.569c.51.76.786 1.651.795 2.566l1.5-.014a6.188 6.188 0 0 0-1.05-3.388l-1.245.836ZM12.021 12.631l-.471.583a.75.75 0 0 0 .943 0l-.472-.583Zm-3-6-.75-.02.001.048.75-.028Zm2.486-5.546.515.546a.6.6 0 0 0 .01-.01l-.524-.536Zm.515-.21v.75-.75Zm.514.21-.524.536a.612.612 0 0 0 .01.01l.514-.546Zm2.486 5.546.749.028V6.61l-.75.021Zm-2.99-5.01a.015.015 0 0 1-.01.004v-1.5c-.389 0-.762.152-1.04.424l1.05 1.072Zm-.01.004a.015.015 0 0 1-.01-.004l1.05-1.072a1.485 1.485 0 0 0-1.04-.424v1.5ZM9.772 6.65a7.235 7.235 0 0 1 2.25-5.02L10.993.54A8.735 8.735 0 0 0 8.272 6.61l1.5.04Zm2.721 5.397a7.407 7.407 0 0 1-2.722-5.445l-1.499.056a8.907 8.907 0 0 0 3.278 6.555l.943-1.166Zm1.779-5.445a7.407 7.407 0 0 1-2.722 5.445l.943 1.166a8.907 8.907 0 0 0 3.278-6.555l-1.499-.056Zm-2.25-4.972a7.24 7.24 0 0 1 2.25 5.02l1.5-.04A8.739 8.739 0 0 0 13.05.538l-1.029 1.092Z"/>
</symbol>
<symbol id="stone" viewBox="0 0 37 32">
<path d="M36.75 23.811c0-.899-.995-1.612-2.414-1.807.545-1.345.434-2.578-.333-3.028-.748-.439-1.888.076-2.753 1.21-.865-1.134-2.005-1.649-2.753-1.21a1.161 1.161 0 0 0-.35.334c-.959-.651-2.109-1.228-3.415-1.699 2.13-1.143 3.43-2.702 3.43-4.448 0-2.121-1.916-4.015-5.165-5.202 1.303-.836 2.077-1.909 2.077-3.094C25.074 2.138 20.979 0 15.75 0c-5.228 0-9.323 2.138-9.323 4.866 0 1.185.774 2.258 2.077 3.094-3.25 1.187-5.166 3.081-5.166 5.202 0 1.745 1.297 3.302 3.424 4.444C2.663 19.077.25 21.444.25 24.077.25 28.52 7.059 32 15.75 32c5.136 0 9.832-1.263 12.716-3.38.011.007.02.018.031.025.747.441 1.888-.076 2.753-1.21.65.853 1.44 1.375 2.13 1.375.228 0 .438-.056.623-.165.767-.45.878-1.684.333-3.028 1.419-.194 2.414-.907 2.414-1.806zM7.427 4.866C7.427 2.771 11.238 1 15.75 1s8.324 1.771 8.324 3.866-3.812 3.866-8.324 3.866-8.323-1.77-8.323-3.866zm-3.089 8.296c0-1.824 2.063-3.559 5.385-4.558 1.615.706 3.708 1.128 6.027 1.128s4.413-.422 6.027-1.128c3.322.999 5.385 2.734 5.385 4.558 0 2.924-5.227 5.395-11.412 5.395S4.338 16.086 4.338 13.162zM1.25 24.077c0-2.348 2.617-4.582 6.837-5.857 2.098.838 4.744 1.337 7.663 1.337 2.917 0 5.561-.498 7.658-1.335 1.755.531 3.271 1.247 4.427 2.081-.024.503.081 1.088.329 1.701-1.419.194-2.414.907-2.414 1.807s.995 1.612 2.414 1.807c-.332.819-.417 1.593-.262 2.178C25.22 29.774 20.624 31 15.75 31c-7.859 0-14.5-3.17-14.5-6.923zm32.313.593a.5.5 0 0 0-.434.745c.708 1.257.613 2.224.367 2.369-.295.169-1.2-.432-1.813-1.502a.499.499 0 0 0-.868 0c-.613 1.07-1.481 1.666-1.773 1.502-.029-.018-.042-.049-.042-.091v-.002c0-.301-.208-1.177.411-2.276a.5.5 0 0 0-.024-.497.517.517 0 0 0-.44-.248c-1.314-.004-2.192-.521-2.192-.859s.87-.855 2.184-.859a.498.498 0 0 0 .431-.745c-.495-.878-.594-1.607-.527-2.021.002-.006.001-.011.002-.017.03-.169.085-.289.157-.331.296-.166 1.201.432 1.813 1.502.178.312.689.312.867 0 .612-1.071 1.515-1.673 1.813-1.502.246.146.341 1.112-.367 2.369a.498.498 0 0 0 .434.745c1.314.004 2.187.521 2.187.859s-.871.855-2.186.859z"/><path d="M13.312 2.309c-2.744.31-4.237 1.926-4.299 1.994a.5.5 0 1 0 .74.672c.013-.015 1.298-1.404 3.67-1.672a.5.5 0 0 0 .441-.553.512.512 0 0 0-.552-.441zM11.341 10.309c-2.744.31-4.237 1.926-4.299 1.994a.5.5 0 1 0 .74.672c.013-.015 1.298-1.404 3.67-1.672a.5.5 0 0 0 .441-.553.514.514 0 0 0-.552-.441zM9.897 20.158c-3.527.612-5.331 2.813-5.406 2.906a.5.5 0 0 0 .778.627c.017-.021 1.659-2.004 4.8-2.55a.5.5 0 0 0 .406-.578.493.493 0 0 0-.578-.405z"/>
</symbol>
</defs>
</svg>
