<svg aria-hidden="true" style="position: absolute; width: 0; height: 0; overflow: hidden;" version="1.1" xmlns="http://www.w3.org/2000/svg" xmlns:xlink="http://www.w3.org/1999/xlink">
<defs>
<symbol id="dermis" viewBox="0 0 32 32">
<path d="M30.462 0.494c-3.337 1.869-6.913 4.438-9.712 6.981-5.287 4.8-8 9.581-8.006 14.119 0 1.538 0.35 2.619 1.125 3.425 0.594 0.625 1.262 0.919 2.094 0.919 1.325 0 2.344-0.719 2.906-2.056 0.313-0.744 0.331-0.95 0.381-4.506 0.050-3.512 0.069-3.713 0.381-4.875 0.475-1.794 1.575-3.881 2.962-5.656 2.063-2.638 5.131-5.331 8.425-7.4 0.781-0.488 0.981-0.681 0.981-0.925 0-0.194-0.319-0.519-0.512-0.519-0.081 0-0.544 0.219-1.025 0.494zM21.875 7.963c0 0.013-0.15 0.219-0.337 0.463-1.606 2.081-2.731 4.5-3.175 6.819-0.113 0.588-0.131 1.044-0.175 4.006-0.025 1.837-0.069 3.425-0.094 3.531-0.175 0.762-0.425 1.238-0.844 1.613-0.775 0.694-1.981 0.619-2.669-0.175-0.519-0.594-0.769-1.438-0.769-2.637-0.006-3.075 1.4-6.306 4.238-9.762 0.356-0.431 1.35-1.481 2.206-2.338 1.431-1.419 1.619-1.594 1.619-1.519z"></path>
<path d="M11.45 13.975c-0.313 0.050-0.906 0.188-1.313 0.306-1.775 0.531-2.831 0.694-4.013 0.637-0.869-0.044-1.475-0.162-2.481-0.488-0.794-0.256-1.75-0.488-2.025-0.494-0.375 0-0.819 0.194-1.119 0.5-0.531 0.531-0.5-0.063-0.5 8.569 0 7.512 0 7.619 0.125 7.956 0.144 0.375 0.481 0.731 0.869 0.9 0.206 0.1 1.406 0.106 14.881 0.125 16.3 0.019 15.069 0.050 15.569-0.406 0.137-0.125 0.313-0.344 0.387-0.481l0.137-0.256v-7.844c0-7.525-0.006-7.856-0.119-8.075-0.063-0.131-0.212-0.338-0.337-0.456-0.356-0.344-0.606-0.438-1.137-0.438-0.481 0-0.637 0.050-2 0.625-0.95 0.406-1.719 0.344-3.038-0.25-0.425-0.194-0.981-0.394-1.231-0.45-0.762-0.162-1.669-0.025-2.462 0.375-0.756 0.375-1.075 0.762-1.212 1.494-0.038 0.181-0.087 1.85-0.119 3.706-0.056 3.669-0.056 3.731-0.438 4.7-0.475 1.238-1.369 2.125-2.575 2.563-0.406 0.15-0.544 0.169-1.3 0.169-0.719 0.006-0.9-0.019-1.231-0.137-1.256-0.45-2.244-1.475-2.731-2.825-0.625-1.738-0.406-4.838 0.488-6.912 0.113-0.275 0.356-0.825 0.531-1.231 0.381-0.881 0.463-1.194 0.381-1.494-0.106-0.375-0.25-0.456-0.869-0.469-0.294-0.006-0.8 0.031-1.119 0.081zM12.25 14.994c0 0.031-0.188 0.475-0.412 0.988-0.225 0.506-0.494 1.162-0.588 1.456-0.625 1.919-0.825 4.538-0.463 6.113 0.531 2.288 2.025 3.906 4.069 4.394 0.706 0.169 1.863 0.137 2.569-0.063 1.2-0.35 2.225-1.113 2.919-2.181 0.331-0.519 0.488-0.869 0.694-1.531 0.294-0.975 0.337-1.569 0.337-4.488 0-2.644 0.056-3.663 0.206-3.994 0.106-0.225 0.863-0.594 1.413-0.694 0.6-0.106 1.006-0.019 1.913 0.394 0.962 0.438 1.475 0.563 2.313 0.569 0.744 0.006 0.975-0.056 2.306-0.613 0.788-0.331 0.981-0.344 1.225-0.106l0.188 0.194-0.012 7.594-0.019 7.594-0.288 0.288-14.494 0.019c-15.819 0.012-14.863 0.038-15-0.331-0.081-0.219-0.087-15.025 0-15.244 0.031-0.088 0.144-0.2 0.25-0.256 0.181-0.094 0.238-0.094 0.694 0 0.275 0.056 0.744 0.188 1.044 0.287 1.65 0.563 3.031 0.731 4.544 0.55 0.787-0.088 1.356-0.213 2.438-0.531 0.756-0.225 1.419-0.369 2.113-0.456 0.025-0.006 0.044 0.019 0.044 0.050z"></path>
<path d="M2.362 16.65c-0.306 0.231-0.231 0.8 0.119 0.894 0.244 0.063 0.4 0.031 0.569-0.125 0.188-0.175 0.188-0.538-0.006-0.719-0.163-0.156-0.512-0.181-0.681-0.050z"></path>
<path d="M5.513 16.706c-0.313 0.331-0.081 0.856 0.369 0.856 0.294 0 0.494-0.212 0.494-0.506 0-0.444-0.563-0.669-0.862-0.35z"></path>
<path d="M8.694 16.725c-0.175 0.225-0.169 0.531 0.012 0.694 0.275 0.262 0.694 0.194 0.831-0.137 0.156-0.381-0.063-0.712-0.488-0.719-0.175 0-0.256 0.038-0.356 0.163z"></path>
<path d="M22.575 16.706c-0.306 0.325-0.069 0.881 0.369 0.869 0.444-0.012 0.669-0.575 0.35-0.875-0.2-0.188-0.544-0.181-0.719 0.006z"></path>
<path d="M25.762 16.706c-0.188 0.2-0.181 0.544 0.006 0.712 0.163 0.156 0.319 0.188 0.563 0.125 0.35-0.094 0.425-0.663 0.119-0.894-0.175-0.137-0.538-0.106-0.688 0.056z"></path>
<path d="M28.969 16.719c-0.188 0.188-0.2 0.456-0.031 0.669 0.356 0.462 1.094 0.025 0.875-0.512-0.144-0.35-0.575-0.431-0.844-0.156z"></path>
<path d="M4.088 18.188c-0.35 0.144-0.438 0.575-0.175 0.837 0.469 0.462 1.2-0.181 0.763-0.675-0.162-0.181-0.394-0.244-0.588-0.163z"></path>
<path d="M7.25 18.206c-0.331 0.169-0.388 0.6-0.112 0.856 0.3 0.275 0.862 0.031 0.862-0.381 0-0.363-0.438-0.637-0.75-0.475z"></path>
<path d="M24.313 18.206c-0.344 0.175-0.4 0.587-0.113 0.856 0.3 0.275 0.863 0.031 0.863-0.381 0-0.363-0.438-0.637-0.75-0.475z"></path>
<path d="M27.5 18.206c-0.087 0.044-0.194 0.156-0.238 0.244-0.238 0.506 0.438 0.981 0.831 0.581 0.262-0.256 0.194-0.656-0.137-0.831-0.169-0.094-0.262-0.094-0.456 0.006z"></path>
</symbol>
<symbol id="call" viewBox="0 0 32 32">
<path d="M16.781 0.094c-0.819 0.287-1.113 1.519-0.5 2.069 0.244 0.219 0.512 0.313 1.063 0.369 1.025 0.112 2.512 0.431 3.625 0.775 3.181 1 5.369 2.837 6.637 5.569 0.712 1.537 1.3 3.919 1.419 5.725 0.075 1.162 0.425 1.6 1.288 1.6 0.419 0 0.712-0.113 0.931-0.356 0.262-0.306 0.319-0.569 0.319-1.569 0-2.669-0.619-4.963-1.931-7.144-2.206-3.656-5.719-6.175-9.656-6.906-1.15-0.219-2.762-0.281-3.194-0.131z"></path>
<path d="M5.525 1.637c-1.044 0.119-2.519 0.863-3.425 1.731-0.556 0.538-0.875 0.969-1.163 1.594-0.4 0.844-0.469 1.188-0.463 2.287 0 0.844 0.025 1.050 0.169 1.581 0.4 1.494 2.031 4.863 3.494 7.225 4.044 6.525 10.012 11.669 17.425 15.025 1.581 0.712 2.406 0.956 3.094 0.894 2.113-0.175 4.506-1.962 5.531-4.119 0.762-1.594 0.531-2.844-0.731-3.975-0.869-0.769-3.669-2.831-4.662-3.431-0.988-0.587-2.087-0.825-2.9-0.613-0.85 0.212-1.45 0.656-2.163 1.587-0.644 0.844-0.913 1.012-1.581 1.012-0.444 0-0.869-0.137-1.681-0.55-2.688-1.35-4.912-3.556-6.106-6.050-0.544-1.137-0.656-1.906-0.375-2.537 0.175-0.394 0.4-0.631 1.075-1.144 0.919-0.694 1.287-1.162 1.475-1.875 0.231-0.856-0.012-1.675-0.981-3.325-1.006-1.706-2.838-3.944-3.881-4.75-0.619-0.475-1.331-0.663-2.15-0.569z"></path>
<path d="M17.656 4.094c-0.031 0.013-0.169 0.037-0.3 0.063-0.663 0.112-1.113 1.075-0.825 1.763 0.206 0.487 0.481 0.644 1.444 0.825 3.425 0.65 5.181 1.806 6.087 4.006 0.35 0.844 0.681 2.231 0.781 3.25 0.056 0.581 0.156 0.863 0.375 1.094 0.462 0.494 1.519 0.425 1.894-0.119 0.212-0.313 0.262-0.563 0.262-1.35-0.006-1.956-0.544-3.65-1.675-5.281-0.45-0.644-1.712-1.906-2.356-2.356-0.988-0.694-2.231-1.269-3.331-1.544-0.394-0.1-2.15-0.394-2.262-0.375-0.019 0-0.056 0.013-0.094 0.025z"></path>
<path d="M17.813 8.412c-0.55 0.194-0.869 0.662-0.875 1.262 0 0.394 0.113 0.637 0.387 0.844 0.238 0.175 0.425 0.244 1.175 0.419 0.975 0.231 1.581 0.669 1.938 1.4 0.181 0.381 0.225 0.531 0.406 1.419 0.113 0.537 0.356 0.9 0.744 1.081 0.619 0.294 1.387-0.037 1.644-0.706 0.15-0.387 0.15-1.394-0.006-1.912-0.488-1.656-1.906-3.156-3.519-3.725-0.5-0.175-1.512-0.219-1.894-0.081z"></path>
</symbol>
<symbol id="spa" viewBox="0 0 32 32">
<path d="M17.35 1.45c-1.5 1.8-2.1 4.8-1.4 6.75 0.75 1.85 1.65 1.15 1.25-0.9-0.15-1.050 0.050-2.35 0.55-3.6l0.8-1.95 0.7 1.25c0.85 1.55 0.95 4.5 0.15 6.25-0.85 1.85-2.95 1.7-5.1-0.4-0.95-0.85-1.85-2.1-2.050-2.75-0.25-0.95-0.15-1.1 1-1.1 2.050 0 1.25-1.2-0.9-1.4-1.75-0.15-1.85-0.050-1.85 1.25 0 0.75 0.5 2.3 1.15 3.35 3.65 6.35 13.85 4.45 15.15-2.85l0.3-1.85h-1.85c-1 0-2.25 0.2-2.75 0.5-0.75 0.4-1 0.2-1.5-1-0.3-0.75-1-1.8-1.5-2.25-0.8-0.75-0.95-0.7-2.15 0.7z"></path>
<path d="M4.65 18.8l-2.15 1.25v4.25c0 3.85-0.1 4.2-1 4.2-0.55 0-1 0.35-1 0.75 0 0.5 0.55 0.75 1.75 0.75h1.75v-4.65c0-4.6 0-4.65 1.45-5.5 2.35-1.35 5.3-1.050 9.55 1.050 2.050 1 3.8 2.15 3.9 2.45 0.35 1.2-1.4 1.25-4.15 0.1-1.95-0.8-2.9-1-3.3-0.6s0.3 0.9 2.3 1.85c1.6 0.7 3.35 1.3 3.95 1.3s3.4-1 6.3-2.25c4.45-1.85 5.35-2.1 5.95-1.55 0.35 0.4 0.55 0.95 0.35 1.2-0.35 0.55-15.5 7.1-16.45 7.1-0.35 0-2.25-0.8-4.3-1.75-4-1.95-4.55-2.050-4.55-1.1 0 1.15 7.8 4.5 9.5 4.15 0.8-0.15 4.75-1.65 8.8-3.4 7.55-3.2 9.1-4.35 8.45-6.4-0.35-1.1-2.5-2.2-3.3-1.75-0.2 0.15-1-0.050-1.65-0.5-1.15-0.75-1.4-0.75-3.5 0.2-1.25 0.55-2.3 1.25-2.3 1.5 0 0.75 0.7 0.7 2.75-0.15 0.95-0.4 1.85-0.55 2-0.3 0.2 0.35-0.6 0.75-4.55 2.3-0.3 0.15-0.75-0.3-1.050-0.9-0.35-0.8-1.9-1.8-4.8-3.050-5.2-2.25-7.7-2.4-10.7-0.55z"></path>
</symbol>
<symbol id="no" viewBox="0 0 32 32">
<path d="M0.5 1.1c0 0.35 0.95 1.6 2.1 2.75l2.1 2.15-2.1 2.15c-3.55 3.65-2.4 4.8 1.25 1.25l2.15-2.1 2.15 2.1c3.65 3.55 4.8 2.4 1.25-1.25l-2.1-2.15 2.1-2.15c3.55-3.65 2.4-4.8-1.25-1.25l-2.15 2.1-2.15-2.1c-2.15-2.1-3.35-2.65-3.35-1.5z"></path>
<path d="M19.1 1.1c-0.3 0.3-0.6 0.9-0.6 1.25s-0.5 0.65-1.15 0.65c-0.65 0-1.6 0.3-2.15 0.7-0.85 0.65-0.95 1.5-1.1 7.5-0.1 3.75-0.35 6.8-0.55 6.8-0.25 0-0.8-0.45-1.35-1.050-0.5-0.6-1.6-1.4-2.35-1.8-1.25-0.65-1.55-0.65-2.65 0.1-0.7 0.45-1.2 1.25-1.15 1.9 0 1.2 8.8 13.9 9.85 14.25 1.3 0.4 0.45-1.2-3.95-7.45-4.1-5.85-5.050-7.95-3.55-7.95 0.25 0 2.3 1.55 4.55 3.5 2.3 1.9 4.35 3.5 4.6 3.5 0.85 0 0.45-1.45-0.55-2.15-0.95-0.65-1-1.15-0.9-8.4 0.15-6.45 0.25-7.7 0.9-7.7 0.6 0 0.8 1.1 1 6.1 0.15 3.35 0.45 6.25 0.65 6.45 0.95 0.95 1.35-1.5 1.35-8.2 0-6.75 0.050-7.1 1-7.1 0.9 0 1 0.4 1.1 7.35 0.15 6.2 0.25 7.4 0.9 7.4 0.6 0 0.8-1.1 1-6s0.4-6 1-6c0.6 0 0.8 1.2 1 6.75s0.4 6.75 1 6.75c0.6 0 0.8-0.9 0.9-4.4 0.15-3.95 0.25-4.35 1.1-4.35 0.95 0 1 0.4 1 7.45 0 6.1-0.2 8.050-1.050 10.8-1.050 3.45-0.9 4.75 0.35 3 1.45-2 2.25-6.050 2.5-13 0.3-7.85-0.1-9.4-2.4-9.65-1.1-0.15-1.4-0.45-1.65-2.15-0.35-2-1.35-2.95-3.1-2.95-0.5 0-1.15-0.5-1.4-1.15-0.55-1.25-3.15-1.75-4.15-0.75z"></path>
</symbol>
<symbol id="yes" viewBox="0 0 32 32">
<path d="M15.65 0.55c-0.6 0.2-1.2 0.85-1.4 1.4-0.2 0.65-0.75 1.050-1.45 1.050-1.55 0-2.8 1.5-2.8 3.4 0 1.45-0.15 1.6-1.5 1.6-1.8 0-2.5 1.15-2.5 4.2 0 1.65 0.2 2.3 0.7 2.3 0.55 0 0.8-0.7 0.9-2.4 0.15-1.95 0.3-2.35 1.15-2.35s1 0.4 1.15 2.6c0.1 1.9 0.35 2.65 0.85 2.65 0.55 0 0.75-1.1 0.85-5.15 0.15-4.7 0.2-5.1 1.15-5.1s1 0.4 1.15 6.1c0.1 4.95 0.25 6.15 0.85 6.15s0.75-1.35 0.85-7.4c0.15-6.95 0.2-7.35 1.15-7.35s1 0.4 1.15 6.85c0.1 5.6 0.25 6.9 0.85 6.9 0.55 0 0.75-1.15 0.85-5.65 0.15-5.2 0.2-5.6 1.15-5.6s1 0.4 1.15 7.55c0.1 7.45 0.1 7.5-1.15 8.7-0.7 0.65-1.25 1.35-1.25 1.6 0 1 1.4 0.15 5.3-3.15 3.95-3.3 5.2-3.85 5.2-2.2 0 0.4-1.95 3.45-4.3 6.8-4.8 6.85-5.25 7.65-4.050 7.4 0.45-0.1 2.85-3.1 5.35-6.65 4.7-6.8 5.45-8.75 3.55-9.8-1.45-0.75-1.75-0.65-4.5 1.5l-2.55 2v-6.9c0-6.1-0.1-7.050-0.9-7.75-0.5-0.5-1.4-0.85-1.95-0.85s-1.2-0.5-1.55-1.2c-0.6-1.35-1.9-1.8-3.45-1.25z"></path>
<path d="M3.8 17.95c-2.25 1.5-3.3 3.5-3.3 6.3 0 4.4 2.85 7.25 7.25 7.25s7.25-2.85 7.25-7.25c0-4.4-2.85-7.25-7.25-7.25-1.6 0-3 0.35-3.95 0.95zM11.8 20.2c1.45 1.45 1.7 2.050 1.7 4.050 0 3.4-2.35 5.75-5.75 5.75-2 0-2.6-0.25-4.050-1.7s-1.7-2.050-1.7-4.050c0-2 0.25-2.6 1.7-4.050s2.050-1.7 4.050-1.7c2 0 2.6 0.25 4.050 1.7z"></path>
<path d="M8.85 23.35c-1.050 1.050-1.45 1.25-1.95 0.75-0.8-0.8-1.9-0.75-1.9 0.050 0 0.9 1.6 2.35 2.55 2.35 0.9 0 3.95-3.050 3.95-3.9 0-1-1.2-0.65-2.65 0.75z"></path>
</symbol>
<symbol id="location" viewBox="0 0 32 32" fill="red">
<path d="M16 0c-5.523 0-10 4.477-10 10 0 10 10 22 10 22s10-12 10-22c0-5.523-4.477-10-10-10zM16 16c-3.314 0-6-2.686-6-6s2.686-6 6-6 6 2.686 6 6-2.686 6-6 6z"></path>
</symbol>
<symbol id="rocket" viewBox="0 0 32 32">
<path d="M22 2l-10 10h-6l-6 8c0 0 6.357-1.77 10.065-0.94l-10.065 12.94 13.184-10.255c1.839 4.208-1.184 10.255-1.184 10.255l8-6v-6l10-10 2-10-10 2z"></path>
</symbol>
<symbol id="fire" viewBox="0 0 32 32">
<path d="M10.031 32c-2.133-4.438-0.997-6.981 0.642-9.376 1.795-2.624 2.258-5.221 2.258-5.221s1.411 1.834 0.847 4.703c2.493-2.775 2.963-7.196 2.587-8.889 5.635 3.938 8.043 12.464 4.798 18.783 17.262-9.767 4.294-24.38 2.036-26.027 0.753 1.646 0.895 4.433-0.625 5.785-2.573-9.759-8.937-11.759-8.937-11.759 0.753 5.033-2.728 10.536-6.084 14.648-0.118-2.007-0.243-3.392-1.298-5.312-0.237 3.646-3.023 6.617-3.777 10.27-1.022 4.946 0.765 8.568 7.555 12.394z"></path>
</symbol>
<symbol id="notification" viewBox="0 0 32 32">
<path d="M16 3c-3.472 0-6.737 1.352-9.192 3.808s-3.808 5.72-3.808 9.192c0 3.472 1.352 6.737 3.808 9.192s5.72 3.808 9.192 3.808c3.472 0 6.737-1.352 9.192-3.808s3.808-5.72 3.808-9.192c0-3.472-1.352-6.737-3.808-9.192s-5.72-3.808-9.192-3.808zM16 0v0c8.837 0 16 7.163 16 16s-7.163 16-16 16c-8.837 0-16-7.163-16-16s7.163-16 16-16zM14 22h4v4h-4zM14 6h4v12h-4z"></path>
</symbol>
<symbol id="cancel" viewBox="0 0 32 32">
<path d="M16 0c-8.837 0-16 7.163-16 16s7.163 16 16 16 16-7.163 16-16-7.163-16-16-16zM16 29c-7.18 0-13-5.82-13-13s5.82-13 13-13 13 5.82 13 13-5.82 13-13 13z"></path>
<path d="M21 8l-5 5-5-5-3 3 5 5-5 5 3 3 5-5 5 5 3-3-5-5 5-5z"></path>
</symbol>
<symbol id="check" viewBox="0 0 32 32">
<path d="M12.42 28.678l-12.433-12.238 6.168-6.071 6.265 6.167 13.426-13.214 6.168 6.071-19.594 19.285zM3.372 16.441l9.048 8.905 16.208-15.953-2.782-2.739-13.426 13.214-6.265-6.167-2.782 2.739z"></path>
</symbol>
</defs>
</svg>
